<?xml version="1.0" standalone="no"?>
<!DOCTYPE svg PUBLIC "-//W3C//DTD SVG 20010904//EN"
 "http://www.w3.org/TR/2001/REC-SVG-20010904/DTD/svg10.dtd">
<svg version="1.0" xmlns="http://www.w3.org/2000/svg"
 width="29.000000pt" height="40.000000pt" viewBox="0 0 29.000000 40.000000"
 preserveAspectRatio="xMidYMid meet">
<metadata>
Created by potrace 1.10, written by Peter Selinger 2001-2011
</metadata>
<g transform="translate(0.000000,40.000000) scale(0.100000,-0.100000)"
fill="#000000" stroke="none">
<path d="M50 364 c0 -3 4 -14 10 -24 8 -14 18 -17 49 -13 96 13 152 -28 110
-80 -24 -32 -24 -43 1 -74 18 -23 19 -29 6 -47 -11 -18 -25 -21 -95 -24 -76
-3 -81 -4 -81 -25 0 -21 2 -22 92 -17 51 3 99 9 105 13 7 4 18 25 24 47 10 33
9 43 -4 64 -15 22 -15 27 -1 55 21 42 4 95 -36 116 -28 14 -180 22 -180 9z"/>
<path d="M43 295 c5 -13 127 -19 127 -6 0 5 -29 11 -65 13 -40 2 -64 -1 -62
-7z"/>
<path d="M27 252 c6 -14 160 -13 156 1 -2 5 -38 9 -82 10 -60 2 -77 -1 -74
-11z"/>
<path d="M60 170 c0 -27 5 -50 10 -50 6 0 10 23 10 50 0 28 -4 50 -10 50 -5 0
-10 -22 -10 -50z"/>
<path d="M100 169 c0 -65 22 -62 24 4 1 32 -3 47 -11 47 -9 0 -13 -17 -13 -51z"/>
<path d="M145 170 c0 -29 5 -50 11 -50 6 0 11 22 11 50 0 31 -4 50 -11 50 -7
0 -11 -19 -11 -50z"/>
</g>
</svg>
