<?xml version="1.0" standalone="no"?>
<!DOCTYPE svg PUBLIC "-//W3C//DTD SVG 20010904//EN"
 "http://www.w3.org/TR/2001/REC-SVG-20010904/DTD/svg10.dtd">
<svg version="1.0" xmlns="http://www.w3.org/2000/svg"
 width="177.000000pt" height="40.000000pt" viewBox="0 0 177.000000 40.000000"
 preserveAspectRatio="xMidYMid meet">
<metadata>
Created by potrace 1.10, written by Peter Selinger 2001-2011
</metadata>
<g transform="translate(0.000000,40.000000) scale(0.100000,-0.100000)"
fill="#000000" stroke="none">
<path d="M50 364 c0 -3 4 -14 10 -24 8 -14 18 -17 49 -13 96 13 152 -28 110
-80 -24 -32 -24 -43 1 -74 18 -23 19 -29 6 -47 -11 -18 -25 -21 -95 -24 -76
-3 -81 -4 -81 -25 0 -21 2 -22 92 -17 51 3 99 9 105 13 7 4 18 25 24 47 10 33
9 43 -4 64 -15 22 -15 27 -1 55 21 42 4 95 -36 116 -28 14 -180 22 -180 9z"/>
<path d="M43 295 c5 -13 127 -19 127 -6 0 5 -29 11 -65 13 -40 2 -64 -1 -62
-7z"/>
<path d="M27 252 c6 -14 160 -13 156 1 -2 5 -38 9 -82 10 -60 2 -77 -1 -74
-11z"/>
<path d="M307 143 c2 -84 3 -87 25 -87 21 0 23 4 22 42 -1 56 20 50 24 -6 3
-34 7 -42 23 -42 16 0 19 7 19 45 0 27 -5 45 -11 45 -8 0 -8 4 0 14 7 8 11 27
9 43 -3 26 -6 28 -58 31 l-55 3 2 -88z m73 36 c0 -20 -15 -26 -25 -9 -9 15 3
43 15 35 5 -3 10 -15 10 -26z m-38 -41 c-9 -9 -12 -7 -12 12 0 19 3 21 12 12
9 -9 9 -15 0 -24z"/>
<path d="M452 153 c-16 -101 -16 -98 13 -98 17 0 25 6 25 18 0 9 7 17 15 17 8
0 15 -9 15 -19 0 -14 7 -19 25 -17 14 0 25 1 25 1 0 0 -30 171 -30 173 0 1
-17 2 -38 2 l-39 0 -11 -77z m59 0 c3 -25 -2 -36 -24 -53 -20 -16 -25 -17 -21
-6 3 9 10 16 15 16 5 0 9 15 9 33 0 19 3 37 7 40 9 10 11 6 14 -30z m20 -46
c-10 -9 -11 -8 -5 6 3 10 9 15 12 12 3 -3 0 -11 -7 -18z"/>
<path d="M580 146 c0 -67 3 -85 16 -90 26 -10 36 4 29 40 -8 46 9 43 21 -3 7
-28 15 -39 32 -41 21 -3 22 -1 22 87 0 84 -1 91 -20 91 -23 0 -26 -29 -9 -79
9 -24 9 -35 0 -44 -6 -6 -12 -7 -12 -1 -1 5 -3 18 -4 29 -1 12 -8 38 -14 58
-10 29 -18 37 -37 37 -23 0 -24 -2 -24 -84z m53 18 c16 -20 16 -21 0 -21 -22
0 -33 15 -26 34 3 8 6 13 7 11 1 -2 9 -12 19 -24z"/>
<path d="M730 141 l0 -89 48 5 c26 3 53 6 60 8 16 6 17 136 0 153 -7 7 -34 12
-60 12 l-48 0 0 -89z m70 -2 c0 -33 -4 -59 -10 -59 -6 0 -10 29 -10 66 0 41 4
63 10 59 6 -3 10 -33 10 -66z"/>
<path d="M880 220 c0 -5 5 -43 11 -85 11 -72 12 -75 39 -75 25 0 28 3 33 53 4
29 10 67 13 85 6 28 4 32 -15 32 -19 0 -21 -6 -21 -54 0 -30 -4 -58 -10 -61
-6 -4 -10 17 -10 54 0 54 -2 61 -20 61 -11 0 -20 -4 -20 -10z"/>
<path d="M993 145 c-2 -82 -1 -85 20 -85 21 0 22 4 22 85 0 78 -2 85 -20 85
-18 0 -20 -8 -22 -85z"/>
<path d="M1055 145 l0 -85 48 0 c35 0 47 4 47 15 0 10 -10 15 -30 15 -23 0
-30 4 -30 20 0 15 7 20 25 20 16 0 25 6 25 15 0 9 -9 15 -25 15 -19 0 -25 5
-25 21 0 17 5 20 25 17 19 -4 25 -1 25 13 0 16 -8 19 -42 19 l-43 0 0 -85z"/>
<path d="M1160 210 c0 -11 5 -19 11 -17 8 1 11 -19 10 -65 -2 -65 -1 -68 21
-68 22 0 23 2 20 70 -3 59 -1 70 12 70 9 0 16 7 16 15 0 11 -12 15 -45 15 -38
0 -45 -3 -45 -20z"/>
<path d="M1260 146 c0 -76 2 -84 21 -89 19 -5 21 -2 17 49 -1 30 0 54 5 54 4
0 7 -6 7 -12 0 -7 5 -30 11 -50 8 -31 15 -38 34 -38 25 0 25 1 25 85 0 78 -2
85 -20 85 -17 0 -20 -7 -21 -52 l-1 -53 -16 53 c-12 44 -19 52 -38 52 -23 0
-24 -2 -24 -84z"/>
<path d="M1420 226 c0 -2 -7 -40 -15 -83 -19 -97 -19 -92 5 -86 11 3 20 12 20
19 0 8 7 14 15 14 8 0 15 -7 15 -15 0 -9 9 -15 21 -15 20 0 21 4 14 48 -13 97
-24 122 -50 122 -14 0 -25 -2 -25 -4z m39 -93 c1 -13 -3 -23 -9 -23 -5 0 -10
21 -9 48 1 38 2 42 9 22 4 -14 8 -35 9 -47z"/>
<path d="M1520 141 c0 -86 1 -89 21 -84 20 5 21 10 14 71 -5 45 -4 62 4 58 6
-4 11 -20 11 -35 0 -48 12 -91 25 -91 12 0 25 51 25 103 0 15 4 27 9 27 5 0 6
-29 3 -65 -4 -61 -4 -65 17 -65 20 0 21 5 21 85 l0 85 -35 0 c-35 0 -35 0 -36
-47 -1 -52 -4 -49 -14 10 -5 33 -9 37 -35 37 l-30 0 0 -89z"/>
<path d="M60 170 c0 -27 5 -50 10 -50 6 0 10 23 10 50 0 28 -4 50 -10 50 -5 0
-10 -22 -10 -50z"/>
<path d="M100 169 c0 -65 22 -62 24 4 1 32 -3 47 -11 47 -9 0 -13 -17 -13 -51z"/>
<path d="M145 170 c0 -29 5 -50 11 -50 6 0 11 22 11 50 0 31 -4 50 -11 50 -7
0 -11 -19 -11 -50z"/>
</g>
</svg>
